<svg width="300" height="294" viewBox="0 0 300 294" fill="none" xmlns="http://www.w3.org/2000/svg">
<path d="M147.427 9.12046C154.785 7.71887 166.138 4.07474 152.683 0.710916C136.915 -3.23106 90.6626 10.1718 78.0483 17.5301C76.9971 18.5813 70.6899 21.7348 73.8435 23.8372L90.6626 38.5539C92.4146 39.9555 96.9697 41.4972 101.175 36.4515C106.43 30.1444 132.71 12.274 147.427 9.12046Z" fill="#F22136"/>
<path d="M187.372 16.4788C177.211 12.9748 147.847 13.3252 111.686 42.7586C108.182 44.861 104.328 49.0658 111.686 53.2706L139.018 72.1921C141.12 73.9441 145.955 76.1866 148.478 71.1409C151.632 64.8337 160.041 51.1682 185.27 28.0419C192.628 24.8884 197.534 19.9828 187.372 16.4788Z" fill="#F77D89"/>
<path d="M211.55 97.4207C209.921 101.567 207.765 111.086 201.038 106.881L160.041 84.8064C156.888 83.4048 152.263 79.1299 158.99 73.2433C167.049 63.0817 185.48 40.8665 194.731 33.2979C197.183 30.4947 203.14 26.9907 208.396 30.1443C223.113 38.9743 228.369 36.4515 224.164 56.4241C223.113 63.7825 223.113 67.9873 211.55 97.4207Z" fill="#F77D89"/>
<path d="M226.266 20.6837C244.137 29.0932 270.417 50.1171 238.881 38.554C210.499 26.9907 168.451 -2.44262 198.935 8.06937C205.243 10.2443 217.166 15.638 226.266 20.6837Z" fill="#F22136"/>
<path d="M236.778 50.117C236.778 45.9122 236.778 39.6051 249.393 49.0658C266.212 69.0385 265.161 115.291 264.109 122.649C263.058 130.008 264.109 133.161 251.495 127.905C245.889 125.803 234.454 121.052 228.369 118.445C221.011 115.291 214.703 115.291 221.011 104.779C227.318 94.2671 234.676 79.5504 236.778 50.117Z" fill="#F77D89"/>
<path d="M280.929 73.2433C277.425 69.0385 271.258 64.4132 274.621 79.5504C278.826 98.4719 276.724 120.547 274.621 128.956C273.57 133.161 273.57 136.315 281.98 138.417C288.637 140.52 301.532 143.463 299.85 138.417C299.85 125.803 296.066 95.1081 280.929 73.2433Z" fill="#F77D89"/>
<path d="M214.703 252.997C209.448 252.997 205.243 251.946 201.038 256.151C189.124 266.663 157.519 287.687 126.403 287.687C121.848 287.336 113.789 288.738 123.25 291.892C133.762 293.643 162.775 296.937 194.731 287.687C206.644 283.832 233.415 271.288 245.188 260.356C248.342 257.552 254.649 254.048 247.29 254.048C228.369 252.997 218.067 253.338 214.703 252.997Z" fill="#21A2F2"/>
<path d="M114.84 266.663C110.285 270.167 104.118 276.965 115.891 276.124C129.206 276.474 161.513 272.76 184.219 255.1C187.723 252.647 191.998 247.321 181.065 245.639C173.707 243.537 158.149 238.911 154.785 237.229C151.982 235.828 145.535 234.286 142.171 239.332C134.112 248.092 117.363 265.822 114.84 266.663Z" fill="#7DC8F7"/>
<path d="M98.0211 209.898L97.972 209.866C93.2692 206.73 90.1756 204.668 87.5091 212.001C83.3044 223.564 74.8948 256.618 83.3044 260.356C92.7651 264.56 94.8675 269.816 108.533 257.202L131.659 235.127C133.411 233.725 135.864 230.394 131.659 228.293C121.498 223.563 101.175 212.001 98.0211 209.898Z" fill="#7DC8F7"/>
<path d="M48.615 175.209C45.8118 172.756 40.4157 170.584 41.2567 181.516C42.3078 195.182 39.1543 217.257 59.1269 246.69C62.9813 250.895 71.1105 255.52 68.5877 240.383C68.9381 232.61 71.7413 217.257 78.0484 203.591C79.0996 199.386 79.8505 199.386 73.8436 195.182C63.3317 187.823 49.8535 176.11 48.615 175.209Z" fill="#7DC8F7"/>
<path d="M26.5399 153.134C29.3056 155.592 30.7447 157.539 30.7447 162.595C30.7447 178.363 28.6422 200.438 32.8471 217.257C34.9494 224.615 40.7311 239.332 42.3078 242.485C44.4102 246.69 52.8198 257.202 38.1031 244.588C23.3864 231.973 -2.8936 195.182 0.260117 134.213C0.260113 129.307 1.94201 121.808 8.66965 131.059C11.4728 135.614 18.9714 146.406 26.5399 153.134Z" fill="#7DC8F7"/>
<path d="M82.2532 264.56C97.3203 272.62 124.091 288.528 110.635 287.687C93.8163 286.636 26.5399 244.588 60.1781 254.048C65.2953 255.488 74.3982 260.358 81.666 264.246L82.2532 264.56Z" fill="#21A2F2"/>
<path d="M152.423 115.631C154.525 99.8636 173.006 103.728 180.014 108.984C199.564 122.167 264.373 144.846 294.334 154.538C299.199 156.009 300.105 159.941 299.635 162.374C291.18 214.444 273.059 231.263 267.106 238.307C264.439 241.463 259.148 241.967 258.403 242.017C215.495 244.928 190.266 236.519 154.525 223.904C150.716 222.708 148.723 220.216 148.792 217.452V204.983L149.447 195.522C150.321 188.164 157.679 192.919 161.884 195.522C179.544 206.455 213.33 220.73 228.109 224.101C230.211 224.58 233.112 225.607 234.917 224.101C236.38 222.675 239.789 216.814 240.266 211.517C240.239 209.166 237.56 207.786 235.512 206.869L155.181 172.541C151.372 171.345 149.378 168.853 149.447 166.089L150.321 155.577C150.792 151.253 153.474 149.27 155.517 150.431L240.91 187.764C242.937 188.725 245.727 189.867 247.531 188.36C248.995 186.935 252.403 181.073 252.88 175.776C252.854 173.426 250.174 172.046 248.126 171.128L235.467 166.089L157.283 132.596C153.474 131.399 151.481 128.908 151.55 126.143L152.423 115.631Z" fill="#F22136" stroke="#A40010" stroke-width="0.3"/>
<path d="M55.9735 32.2465C59.918 29.0412 63.6823 30.4945 65.4343 32.2465C69.297 35.9401 129.546 81.046 136.16 85.1594C139.809 87.4287 138.757 90.4024 138.757 94.6071L138.343 111.426C138.343 114.191 136.16 120.887 132.45 117.733L73.5835 73.5833C71.8315 72.1817 69.3787 70.4297 67.2764 71.4809C65.5244 72.5321 60.86 77.4529 59.178 82.4986C58.6635 84.7922 60.9542 86.7514 62.7361 88.1147L134.058 138.757C137.706 141.027 136.655 144 136.655 148.205L136.241 158.717C136.241 161.482 134.058 168.178 130.348 165.024L52.5597 107.221C50.8077 105.82 48.3549 104.068 46.2525 105.119C44.5005 106.17 38.1542 110.101 38.1542 116.137C38.1542 151.372 28.3822 137.706 27.331 136.655C26.7364 136.06 23.6502 132.924 22.3353 131.059C6.56745 110.035 9.72102 89.011 22.3353 69.0383C30.9531 54.4699 48.3515 38.4403 55.9735 32.2465Z" fill="#21A2F2" stroke="#1976D2" stroke-width="0.3"/>
<path d="M77.7883 144.014C77.7883 140.86 80.5915 142.612 81.9931 144.014L97.7609 156.628C99.1625 157.679 100.915 159.781 99.8633 161.884L98.8121 163.986C98.4617 164.687 97.1302 165.668 94.6074 163.986L89.3514 159.781C87.249 157.679 85.1466 158.73 85.1466 160.833C85.1466 162.935 86.1978 162.935 87.249 163.986L92.505 168.191C93.5562 169.242 93.0091 170.588 92.505 171.344C92.0009 172.101 91.4538 173.447 89.3514 172.396L86.1978 170.293C85.497 169.943 84.178 170.128 83.0442 172.396C82.5186 173.447 83.0442 174.498 86.1978 176.6L92.505 180.805C93.5562 181.506 95.6586 182.908 95.6586 185.01L96.7098 193.419C97.7609 198.675 93.5562 194.471 90.4026 192.368L70.4299 177.652C67.0661 174.288 74.6346 171.344 75.6859 167.14C76.5268 165.458 79.8907 154.525 77.7883 144.014Z" fill="white"/>
<path d="M105.002 166.87C105.119 162.935 109.283 166.943 110.89 167.639C113.529 169.242 114.58 170.293 114.862 173.944L118.785 196.573C119.486 198.675 121.308 200.568 122.99 195.522L125.092 182.908C125.092 180.805 127.194 179.32 130.348 180.805C131.836 181.506 134.813 183.538 134.813 186.061V197.284C133.972 213.262 120.447 210.249 113.789 206.745C107.902 204.222 105.73 198.686 105.38 196.233L105.002 169.242V166.87Z" fill="white"/>
<path fill-rule="evenodd" clip-rule="evenodd" d="M54.6621 125.092C53.2605 123.69 50.8578 122.422 50.4573 125.092C49.4061 132.1 47.3037 146.536 47.3037 148.218C46.9533 151.021 47.0935 157.469 50.4573 160.833L59.918 169.242C62.7212 172.045 67.2763 170.504 69.3787 166.089C72.8827 158.73 76.7371 139.809 54.6621 125.092ZM55.4265 141.71C55.5262 141.065 55.6245 140.43 55.7132 139.809C56.7644 136.655 59.6552 138.757 60.9692 140.86C66.2252 149.269 65.174 160.833 62.0204 159.781C53.0913 156.805 54.3445 148.704 55.4265 141.71Z" fill="white"/>
<path d="M77.7883 144.014C77.7883 140.86 80.5915 142.612 81.9931 144.014L97.7609 156.628C99.1625 157.679 100.915 159.781 99.8633 161.884L98.8121 163.986C98.4617 164.687 97.1302 165.668 94.6074 163.986L89.3514 159.781C87.249 157.679 85.1466 158.73 85.1466 160.833C85.1466 162.935 86.1978 162.935 87.249 163.986L92.505 168.191C93.5562 169.242 93.0091 170.588 92.505 171.344C92.0009 172.101 91.4538 173.447 89.3514 172.396L86.1978 170.293C85.497 169.943 84.178 170.128 83.0442 172.396C82.5186 173.447 83.0442 174.498 86.1978 176.6L92.505 180.805C93.5562 181.506 95.6586 182.908 95.6586 185.01L96.7098 193.419C97.7609 198.675 93.5562 194.471 90.4026 192.368L70.4299 177.652C67.0661 174.288 74.6346 171.344 75.6859 167.14C76.5268 165.458 79.8907 154.525 77.7883 144.014Z" stroke="#FFE6E0" stroke-width="0.3"/>
<path d="M105.002 166.87C105.119 162.935 109.283 166.943 110.89 167.639C113.529 169.242 114.58 170.293 114.862 173.944L118.785 196.573C119.486 198.675 121.308 200.568 122.99 195.522L125.092 182.908C125.092 180.805 127.194 179.32 130.348 180.805C131.836 181.506 134.813 183.538 134.813 186.061V197.284C133.972 213.262 120.447 210.249 113.789 206.745C107.902 204.222 105.73 198.686 105.38 196.233L105.002 169.242V166.87Z" stroke="#FFE6E0" stroke-width="0.3"/>
<path fill-rule="evenodd" clip-rule="evenodd" d="M54.6621 125.092C53.2605 123.69 50.8578 122.422 50.4573 125.092C49.4061 132.1 47.3037 146.536 47.3037 148.218C46.9533 151.021 47.0935 157.469 50.4573 160.833L59.918 169.242C62.7212 172.045 67.2763 170.504 69.3787 166.089C72.8827 158.73 76.7371 139.809 54.6621 125.092ZM55.4265 141.71C55.5262 141.065 55.6245 140.43 55.7132 139.809C56.7644 136.655 59.6552 138.757 60.9692 140.86C66.2252 149.269 65.174 160.833 62.0204 159.781C53.0913 156.805 54.3445 148.704 55.4265 141.71Z" stroke="#FFE6E0" stroke-width="0.3"/>
</svg>
